<?xml version="1.0" encoding="UTF-8" standalone="no"?>
<!DOCTYPE svg PUBLIC "-//W3C//DTD SVG 1.1//EN" "http://www.w3.org/Graphics/SVG/1.1/DTD/svg11.dtd">
<svg version="1.1" xmlns="http://www.w3.org/2000/svg" xmlns:xlink="http://www.w3.org/1999/xlink" preserveAspectRatio="xMidYMid meet" viewBox="0 0 640 640" width="36" height="36"><defs><path d="M193.85 27.31C95.43 26.87 14.79 101.8 14.37 194.1C14.26 218.32 13.39 412.07 13.28 436.29C12.86 528.59 92.81 604.25 191.23 604.7C217.06 604.82 423.68 605.75 449.5 605.87C547.93 606.32 628.56 531.38 628.98 439.09C629.09 414.87 629.97 221.11 630.08 196.89C630.49 104.59 550.54 28.93 452.12 28.48C400.47 28.25 245.5 27.55 193.85 27.31ZM451.92 72.9C524.72 73.23 583.02 128.32 582.71 196.67C582.6 220.89 581.73 414.65 581.62 438.87C581.31 507.14 522.6 561.79 449.7 561.46C423.88 561.34 217.26 560.4 191.43 560.29C118.63 559.95 60.33 504.87 60.64 436.51C60.75 412.29 61.63 218.53 61.74 194.31C62.05 126.04 120.76 71.4 193.65 71.73C245.3 71.96 426.09 72.78 451.92 72.9ZM464.52 150.68C464.43 169.07 480.28 184.06 499.89 184.15C519.5 184.24 535.48 169.39 535.56 151C535.64 132.61 519.8 117.62 500.19 117.53C480.58 117.44 464.6 132.29 464.52 150.68ZM155.91 315.84C155.52 401.46 229.67 471.63 320.97 472.04C412.27 472.46 487.05 402.96 487.44 317.34C487.83 231.72 413.68 161.55 322.38 161.14C231.08 160.73 156.3 230.22 155.91 315.84ZM440.08 317.13C439.8 378.72 386.85 427.92 321.17 427.63C255.5 427.33 202.99 377.64 203.27 316.05C203.55 254.46 256.5 205.26 322.18 205.55C387.86 205.85 440.36 255.54 440.08 317.13Z" id="adpyWqdKw"></path></defs><g><g><g><use xlink:href="#adpyWqdKw" opacity="1" fill="#ffffff" fill-opacity="1"></use><g><use xlink:href="#adpyWqdKw" opacity="1" fill-opacity="0" stroke="#000000" stroke-width="1" stroke-opacity="0"></use></g><g><filter id="shadow2467660" x="4.28" y="18.31" width="635.8" height="597.56" filterUnits="userSpaceOnUse" primitiveUnits="userSpaceOnUse"><feFlood></feFlood><feComposite in2="SourceAlpha" operator="out"></feComposite><feGaussianBlur stdDeviation="1"></feGaussianBlur><feOffset dx="1" dy="1" result="afterOffset"></feOffset><feFlood flood-color="#000000" flood-opacity="0.5"></feFlood><feComposite in2="afterOffset" operator="in"></feComposite><feMorphology operator="dilate" radius="1"></feMorphology><feComposite in2="SourceAlpha" operator="in"></feComposite></filter><path d="M193.85 27.31C95.43 26.87 14.79 101.8 14.37 194.1C14.26 218.32 13.39 412.07 13.28 436.29C12.86 528.59 92.81 604.25 191.23 604.7C217.06 604.82 423.68 605.75 449.5 605.87C547.93 606.32 628.56 531.38 628.98 439.09C629.09 414.87 629.97 221.11 630.08 196.89C630.49 104.59 550.54 28.93 452.12 28.48C400.47 28.25 245.5 27.55 193.85 27.31ZM451.92 72.9C524.72 73.23 583.02 128.32 582.71 196.67C582.6 220.89 581.73 414.65 581.62 438.87C581.31 507.14 522.6 561.79 449.7 561.46C423.88 561.34 217.26 560.4 191.43 560.29C118.63 559.95 60.33 504.87 60.64 436.51C60.75 412.29 61.63 218.53 61.74 194.31C62.05 126.04 120.76 71.4 193.65 71.73C245.3 71.96 426.09 72.78 451.92 72.9ZM464.52 150.68C464.43 169.07 480.28 184.06 499.89 184.15C519.5 184.24 535.48 169.39 535.56 151C535.64 132.61 519.8 117.62 500.19 117.53C480.58 117.44 464.6 132.29 464.52 150.68ZM155.91 315.84C155.52 401.46 229.67 471.63 320.97 472.04C412.27 472.46 487.05 402.96 487.44 317.34C487.83 231.72 413.68 161.55 322.38 161.14C231.08 160.73 156.3 230.22 155.91 315.84ZM440.08 317.13C439.8 378.72 386.85 427.92 321.17 427.63C255.5 427.33 202.99 377.64 203.27 316.05C203.55 254.46 256.5 205.26 322.18 205.55C387.86 205.85 440.36 255.54 440.08 317.13Z" id="c9uijXoOcG" fill="white" fill-opacity="1" filter="url(#shadow2467660)"></path></g></g></g></g></svg>